<?xml version="1.0" standalone="no"?>
<!DOCTYPE svg PUBLIC "-//W3C//DTD SVG 20010904//EN"
 "http://www.w3.org/TR/2001/REC-SVG-20010904/DTD/svg10.dtd">
<svg version="1.0" xmlns="http://www.w3.org/2000/svg"
 width="260.000000pt" height="260.000000pt" viewBox="0 0 260.000000 260.000000"
 preserveAspectRatio="xMidYMid meet">
<metadata>
Created by potrace 1.14, written by Peter Selinger 2001-2017
</metadata>
<g transform="translate(0.000000,260.000000) scale(0.100000,-0.100000)"
fill="#000000" stroke="none">
<path d="M1150 2562 c-59 -8 -256 -55 -265 -62 -5 -4 -21 -11 -35 -15 -117
-36 -311 -160 -428 -272 -175 -171 -288 -363 -350 -598 -31 -118 -33 -137 -37
-285 -3 -179 23 -340 77 -475 131 -322 342 -551 648 -702 39 -20 135 -56 180
-69 140 -38 185 -45 335 -49 191 -5 359 29 538 106 313 137 568 410 680 729
30 86 48 150 54 200 3 19 8 53 13 74 14 63 5 312 -15 401 -115 534 -513 916
-1050 1009 -73 12 -284 18 -345 8z m195 -640 c16 -26 65 -114 167 -302 53 -96
159 -291 237 -432 77 -142 141 -263 141 -271 0 -7 -6 -22 -14 -32 -14 -19 -33
-20 -558 -20 -301 -1 -555 3 -571 8 -43 14 -44 46 -3 117 20 34 36 63 36 64 0
2 19 39 43 82 24 44 60 110 81 147 20 37 45 82 55 100 9 18 50 93 91 167 40
74 96 176 123 225 27 50 57 104 65 120 9 17 23 36 31 42 20 16 63 7 76 -15z"/>
</g>
</svg>
